<?xml version="1.0" encoding="UTF-8"?>
<svg xmlns="http://www.w3.org/2000/svg" xmlns:xlink="http://www.w3.org/1999/xlink" width="1921" height="1664" viewBox="0 0 1921 1664">
<path fill-rule="evenodd" fill="rgb(84.375%, 75.193787%, 68.164062%)" fill-opacity="1" d="M 1312.988281 101.179688 L 1312.988281 141.210938 L 1278.328125 121.191406 L 1278.328125 81.160156 Z M 1231.699219 0.410156 L 1231.699219 121.191406 L 1127.109375 181.578125 L 1231.699219 241.96875 L 1231.699219 308.921875 L 1103.890625 382.71875 L 960.847656 134.960938 L 817.804688 382.71875 L 689.984375 308.921875 L 689.984375 241.96875 L 794.585938 181.578125 L 689.984375 121.191406 L 689.984375 0.410156 L 585.382812 60.800781 L 480.785156 0.410156 L 480.785156 121.191406 L 376.1875 181.578125 L 480.785156 241.96875 L 480.785156 362.75 L 585.382812 302.359375 L 643.363281 335.839844 L 643.363281 483.429688 L 357.28125 483.429688 L 500.320312 731.183594 L 372.503906 804.980469 L 314.523438 771.507812 L 314.523438 650.71875 L 209.925781 711.113281 L 105.328125 650.71875 L 105.328125 771.507812 L 0.722656 831.894531 L 105.328125 892.285156 L 105.328125 1013.070312 L 209.925781 952.679688 L 314.523438 1013.070312 L 314.523438 892.285156 L 372.503906 858.8125 L 500.320312 932.609375 L 357.28125 1180.363281 L 643.363281 1180.363281 L 643.363281 1327.957031 L 585.382812 1361.429688 L 480.785156 1301.039062 L 480.785156 1421.820312 L 376.1875 1482.210938 L 480.785156 1542.605469 L 480.785156 1663.386719 L 585.382812 1602.992188 L 689.984375 1663.386719 L 689.984375 1542.605469 L 794.585938 1482.210938 L 689.984375 1421.820312 L 689.984375 1354.871094 L 817.804688 1281.078125 L 960.847656 1528.832031 L 1103.890625 1281.078125 L 1231.699219 1354.871094 L 1231.699219 1421.820312 L 1127.109375 1482.210938 L 1231.699219 1542.605469 L 1231.699219 1663.386719 L 1336.300781 1602.992188 L 1440.910156 1663.386719 L 1440.910156 1542.605469 L 1545.511719 1482.210938 L 1440.910156 1421.820312 L 1440.910156 1301.039062 L 1336.300781 1361.429688 L 1278.328125 1327.957031 L 1278.328125 1180.363281 L 1564.410156 1180.363281 L 1421.371094 932.609375 L 1549.191406 858.8125 L 1607.160156 892.285156 L 1607.160156 1013.070312 L 1711.761719 952.679688 L 1816.359375 1013.070312 L 1816.359375 892.285156 L 1920.960938 831.894531 L 1816.359375 771.507812 L 1816.359375 650.71875 L 1711.761719 711.113281 L 1607.160156 650.71875 L 1607.160156 771.507812 L 1549.191406 804.980469 L 1421.371094 731.183594 L 1564.410156 483.429688 L 1278.328125 483.429688 L 1278.328125 335.839844 L 1336.300781 302.359375 L 1440.910156 362.75 L 1440.910156 241.96875 L 1545.511719 181.578125 L 1440.910156 121.191406 L 1440.910156 0.410156 L 1336.300781 60.800781 Z M 1278.328125 530.050781 L 1483.660156 530.050781 L 1380.988281 707.875 L 1278.328125 648.601562 Z M 1359.621094 221.960938 L 1394.28125 241.96875 L 1394.28125 282 L 1359.621094 261.988281 Z M 1653.789062 731.476562 L 1688.449219 751.488281 L 1688.449219 791.523438 L 1653.789062 771.507812 Z M 1735.070312 751.488281 L 1769.738281 731.476562 L 1769.738281 771.507812 L 1735.070312 791.523438 Z M 1758.390625 831.894531 L 1793.050781 811.882812 L 1827.71875 831.894531 L 1793.050781 851.910156 Z M 1735.070312 912.304688 L 1735.070312 872.273438 L 1769.738281 892.285156 L 1769.738281 932.316406 Z M 1630.46875 811.882812 L 1665.140625 831.894531 L 1630.46875 851.910156 L 1595.808594 831.894531 Z M 1653.789062 892.285156 L 1688.449219 872.273438 L 1688.449219 912.304688 L 1653.789062 932.316406 Z M 1363.21875 831.894531 L 1398.058594 771.558594 L 1502.558594 831.894531 L 1398.058594 892.230469 Z M 1274.101562 699.992188 L 1357.679688 748.25 L 1309.390625 831.894531 L 1357.679688 915.542969 L 1274.101562 963.804688 C 1264.878906 914.34375 1241.671875 868.5625 1207.21875 831.894531 C 1241.671875 795.230469 1264.878906 749.453125 1274.101562 699.992188 Z M 1278.328125 1015.195312 L 1380.988281 955.921875 L 1483.660156 1133.742188 L 1278.328125 1133.742188 Z M 1312.988281 1522.585938 L 1312.988281 1562.617188 L 1278.328125 1582.632812 L 1278.328125 1542.605469 Z M 1359.621094 1401.804688 L 1394.28125 1381.789062 L 1394.28125 1421.820312 L 1359.621094 1441.835938 Z M 1359.621094 1522.585938 L 1394.28125 1542.605469 L 1394.28125 1582.632812 L 1359.621094 1562.617188 Z M 1382.929688 1482.210938 L 1417.589844 1462.195312 L 1452.261719 1482.210938 L 1417.589844 1502.226562 Z M 1278.328125 1381.789062 L 1312.988281 1401.804688 L 1312.988281 1441.835938 L 1278.328125 1421.820312 Z M 1255.019531 1462.195312 L 1289.679688 1482.210938 L 1255.019531 1502.226562 L 1220.351562 1482.210938 Z M 1172.039062 862.546875 C 1204.679688 896.722656 1225.230469 940.648438 1230.550781 987.609375 C 1187.21875 1006.480469 1138.898438 1010.644531 1092.980469 999.46875 C 1097.089844 926.207031 1044.621094 861.914062 972.019531 851.253906 C 944.953125 919.457031 974.398438 997.042969 1039.898438 1030.117188 C 1026.621094 1075.472656 998.851562 1115.234375 960.847656 1143.324219 C 922.835938 1115.234375 895.070312 1075.472656 881.792969 1030.117188 C 947.292969 997.042969 976.738281 919.457031 949.667969 851.253906 C 877.070312 861.914062 824.601562 926.207031 828.707031 999.46875 C 782.789062 1010.644531 734.472656 1006.480469 691.144531 987.609375 C 696.464844 940.648438 717.015625 896.722656 749.652344 862.546875 C 811.050781 902.734375 892.964844 889.441406 938.492188 831.894531 C 892.964844 774.355469 811.050781 761.0625 749.652344 801.25 C 717.015625 767.070312 696.464844 723.144531 691.144531 676.183594 C 734.472656 657.308594 782.789062 653.148438 828.707031 664.324219 C 824.601562 737.585938 877.070312 801.878906 949.667969 812.539062 C 976.738281 744.335938 947.292969 666.753906 881.792969 633.679688 C 895.070312 588.320312 922.835938 548.558594 960.847656 520.46875 C 998.851562 548.558594 1026.621094 588.320312 1039.898438 633.679688 C 974.398438 666.75 944.953125 744.335938 972.019531 812.539062 C 1044.621094 801.878906 1097.089844 737.585938 1092.980469 664.324219 C 1138.898438 653.148438 1187.21875 657.308594 1230.550781 676.183594 C 1225.230469 723.144531 1204.679688 767.070312 1172.039062 801.25 C 1110.640625 761.0625 1028.730469 774.355469 983.195312 831.894531 C 1028.730469 889.441406 1110.640625 902.734375 1172.039062 862.546875 Z M 1084.03125 1045.265625 C 1133.011719 1056.765625 1184.261719 1053.976562 1231.699219 1037.226562 L 1231.699219 1133.742188 L 1135.121094 1133.742188 L 1086.820312 1217.390625 L 1003.238281 1169.132812 C 1041.460938 1136.421875 1069.511719 1093.433594 1084.03125 1045.265625 Z M 1162.03125 1180.363281 L 1231.699219 1180.363281 L 1231.699219 1301.039062 L 1127.199219 1240.699219 Z M 1278.328125 241.96875 L 1312.988281 221.960938 L 1312.988281 261.988281 L 1278.328125 282 Z M 1127.199219 423.089844 L 1231.699219 362.75 L 1231.699219 483.429688 L 1162.03125 483.429688 Z M 1086.820312 446.398438 L 1135.121094 530.050781 L 1231.699219 530.050781 L 1231.699219 626.570312 C 1184.261719 609.820312 1133.011719 607.03125 1084.03125 618.53125 C 1069.511719 570.359375 1041.460938 527.371094 1003.238281 494.660156 Z M 689.984375 1037.226562 C 737.425781 1053.976562 788.679688 1056.765625 837.65625 1045.265625 C 852.183594 1093.433594 880.226562 1136.421875 918.453125 1169.132812 L 834.867188 1217.390625 L 786.574219 1133.742188 L 689.984375 1133.742188 Z M 689.984375 1180.363281 L 759.65625 1180.363281 L 794.492188 1240.699219 L 689.984375 1301.039062 Z M 562.074219 1401.804688 L 562.074219 1441.835938 L 527.40625 1421.820312 L 527.40625 1381.789062 Z M 504.097656 1462.195312 L 538.765625 1482.210938 L 504.097656 1502.226562 L 469.429688 1482.210938 Z M 1045.75 684.839844 C 1042.429688 709.746094 1029.390625 732.328125 1009.480469 747.660156 C 1012.800781 722.753906 1025.839844 700.171875 1045.75 684.839844 Z M 912.210938 916.132812 C 908.890625 941.039062 895.851562 963.621094 875.941406 978.953125 C 879.265625 954.046875 892.300781 931.460938 912.210938 916.132812 Z M 643.363281 1381.789062 L 643.363281 1421.820312 L 608.695312 1441.835938 L 608.695312 1401.804688 Z M 562.074219 1522.585938 L 562.074219 1562.617188 L 527.40625 1582.632812 L 527.40625 1542.605469 Z M 632.007812 1482.210938 L 666.675781 1462.195312 L 701.34375 1482.210938 L 666.675781 1502.226562 Z M 643.363281 1542.605469 L 643.363281 1582.632812 L 608.695312 1562.617188 L 608.695312 1522.585938 Z M 875.941406 684.839844 C 895.851562 700.171875 908.890625 722.753906 912.210938 747.660156 C 892.300781 732.328125 879.265625 709.746094 875.941406 684.839844 Z M 791.039062 831.894531 C 814.269531 822.320312 840.347656 822.320312 863.578125 831.894531 C 840.347656 841.476562 814.269531 841.476562 791.039062 831.894531 Z M 643.363281 1015.195312 L 643.363281 1133.742188 L 438.03125 1133.742188 L 540.699219 955.921875 Z M 960.847656 228.199219 L 1063.511719 406.03125 L 960.847656 465.300781 L 858.179688 406.03125 Z M 834.867188 446.398438 L 918.453125 494.660156 C 880.226562 527.371094 852.183594 570.359375 837.65625 618.53125 C 788.679688 607.03125 737.425781 609.820312 689.984375 626.570312 L 689.984375 530.050781 L 786.574219 530.050781 Z M 564.007812 748.25 L 647.59375 699.992188 C 656.808594 749.453125 680.019531 795.230469 714.46875 831.894531 C 680.019531 868.5625 656.808594 914.34375 647.59375 963.804688 L 564.007812 915.542969 L 612.304688 831.894531 Z M 643.363281 530.050781 L 643.363281 648.601562 L 540.699219 707.875 L 438.03125 530.050781 Z M 267.90625 731.476562 L 267.90625 771.507812 L 233.238281 791.523438 L 233.238281 751.488281 Z M 794.492188 423.089844 L 759.65625 483.429688 L 689.984375 483.429688 L 689.984375 362.75 Z M 186.613281 751.488281 L 186.613281 791.523438 L 151.945312 771.507812 L 151.945312 731.476562 Z M 128.636719 811.882812 L 163.304688 831.894531 L 128.636719 851.910156 L 93.96875 831.894531 Z M 291.214844 811.882812 L 325.882812 831.894531 L 291.214844 851.910156 L 256.550781 831.894531 Z M 233.238281 872.273438 L 267.90625 892.285156 L 267.90625 932.316406 L 233.238281 912.304688 Z M 186.613281 872.273438 L 186.613281 912.304688 L 151.945312 932.316406 L 151.945312 892.285156 Z M 558.46875 831.894531 L 523.632812 892.230469 L 419.128906 831.894531 L 523.632812 771.558594 Z M 1255.019531 161.570312 L 1289.679688 181.578125 L 1255.019531 201.601562 L 1220.351562 181.578125 Z M 701.34375 181.578125 L 666.675781 201.601562 L 632.007812 181.578125 L 666.675781 161.570312 Z M 643.363281 81.160156 L 643.363281 121.191406 L 608.695312 141.210938 L 608.695312 101.179688 Z M 562.074219 101.179688 L 562.074219 141.210938 L 527.40625 121.191406 L 527.40625 81.160156 Z M 504.097656 161.570312 L 538.765625 181.578125 L 504.097656 201.601562 L 469.429688 181.578125 Z M 643.363281 241.96875 L 643.363281 282 L 608.695312 261.988281 L 608.695312 221.960938 Z M 562.074219 261.988281 L 527.40625 282 L 527.40625 241.96875 L 562.074219 221.960938 Z M 1417.589844 201.601562 L 1382.929688 181.578125 L 1417.589844 161.570312 L 1452.261719 181.578125 Z M 1394.28125 121.191406 L 1359.621094 141.210938 L 1359.621094 101.179688 L 1394.28125 81.160156 Z M 960.847656 1198.492188 L 1063.511719 1257.765625 L 960.847656 1435.589844 L 858.179688 1257.765625 Z M 1058.109375 831.894531 C 1081.339844 822.320312 1107.421875 822.320312 1130.648438 831.894531 C 1107.421875 841.476562 1081.339844 841.476562 1058.109375 831.894531 Z M 1009.480469 916.132812 C 1029.390625 931.460938 1042.429688 954.046875 1045.75 978.953125 C 1025.839844 963.621094 1012.800781 941.039062 1009.480469 916.132812 "/>
</svg>
